<?xml version="1.0" standalone="no"?>
<!DOCTYPE svg PUBLIC "-//W3C//DTD SVG 20010904//EN"
 "http://www.w3.org/TR/2001/REC-SVG-20010904/DTD/svg10.dtd">
<svg version="1.0" xmlns="http://www.w3.org/2000/svg"
 width="512.000000pt" height="512.000000pt" viewBox="0 0 512.000000 512.000000"
 preserveAspectRatio="xMidYMid meet">
<metadata>
Created by potrace 1.16, written by Peter Selinger 2001-2019
</metadata>
<g transform="translate(0.000000,512.000000) scale(0.100000,-0.100000)"
fill="#E4A5FF" stroke="none">
<path d="M2473 5054 c-18 -9 -44 -31 -58 -50 -41 -54 -59 -59 -115 -35 -62 27
-112 27 -167 0 -54 -26 -80 -63 -93 -130 -6 -29 -17 -63 -25 -75 -14 -21 -25
-25 -107 -39 -23 -3 -50 -19 -76 -44 -71 -69 -77 -171 -16 -260 31 -45 30 -55
-5 -110 -16 -25 -32 -62 -36 -82 -8 -43 8 -108 34 -140 l18 -23 89 24 c49 13
94 26 99 30 13 9 162 36 280 50 132 16 420 14 565 -5 140 -17 204 -31 334 -70
48 -14 95 -25 103 -23 27 5 53 68 53 128 0 45 -6 65 -30 103 -37 59 -37 81 0
136 25 37 30 54 30 103 0 65 -9 88 -49 131 -34 37 -50 45 -113 57 -63 12 -86
31 -93 79 -12 70 -15 80 -41 111 -34 40 -93 70 -138 70 -19 0 -58 -9 -85 -20
-60 -23 -85 -17 -119 30 -37 50 -79 70 -147 70 -34 0 -74 -7 -92 -16z"/>
<path d="M2315 4020 c-244 -30 -432 -76 -570 -139 -11 -5 -59 -28 -107 -49
-364 -167 -722 -486 -925 -826 -62 -103 -177 -340 -202 -416 -35 -108 -60
-204 -55 -212 3 -4 19 -8 36 -8 118 0 276 -60 393 -149 104 -78 157 -95 295
-95 138 0 191 17 297 96 84 62 187 113 262 129 90 19 263 7 341 -23 68 -26
162 -80 191 -109 100 -100 336 -130 484 -60 37 17 82 44 100 60 42 37 125 84
200 113 53 20 77 23 200 23 129 -1 146 -3 210 -28 70 -28 155 -78 186 -108 66
-66 194 -104 324 -96 112 6 176 30 275 103 126 94 210 128 346 140 90 8 89 4
35 164 -60 177 -98 267 -153 365 -250 440 -568 739 -1008 944 -222 104 -419
156 -702 186 -183 19 -263 18 -453 -5z"/>
<path d="M416 2211 c-18 -29 -35 -361 -18 -361 4 0 52 -2 107 -5 145 -6 258
-48 380 -143 33 -25 87 -58 120 -71 53 -23 74 -26 175 -25 137 0 192 18 292
93 266 202 563 195 825 -17 60 -48 134 -73 234 -79 136 -9 212 15 332 103 73
54 182 107 257 125 30 8 98 13 150 12 144 -2 260 -48 413 -163 77 -59 135 -75
267 -75 110 0 118 2 180 32 36 18 97 55 135 82 126 90 274 137 405 129 l55 -3
0 130 c0 72 -4 156 -9 189 l-8 58 -96 -4 c-117 -5 -164 -24 -300 -122 -51 -37
-123 -78 -158 -92 -120 -45 -286 -47 -409 -4 -60 21 -79 32 -212 127 -106 75
-147 88 -278 88 -138 0 -170 -11 -324 -117 -150 -103 -212 -123 -371 -123
-159 0 -225 22 -373 127 -143 101 -208 123 -341 116 -117 -7 -164 -26 -297
-120 -143 -100 -211 -123 -369 -123 -157 0 -226 23 -368 122 -127 89 -133 92
-197 109 -56 15 -191 19 -199 5z"/>
<path d="M394 1687 c-2 -7 -3 -107 -2 -222 l3 -210 2168 -3 2167 -2 0 226 0
226 -107 -4 c-126 -5 -162 -18 -293 -107 -108 -74 -192 -117 -255 -131 -63
-14 -197 -14 -260 0 -64 14 -171 69 -259 133 -38 27 -94 61 -125 76 -50 23
-68 26 -171 26 -96 0 -125 -4 -177 -23 -33 -13 -69 -31 -80 -41 -32 -30 -137
-98 -193 -126 -107 -52 -252 -69 -372 -44 -66 13 -195 78 -268 134 -110 85
-194 111 -329 102 -106 -6 -170 -29 -258 -95 -144 -107 -264 -152 -403 -152
-137 0 -251 43 -398 149 -83 60 -103 70 -167 87 -66 18 -214 19 -221 1z"/>
<path d="M212 1080 c-57 -23 -111 -71 -136 -122 l-26 -52 0 -335 c0 -304 2
-340 19 -376 23 -51 111 -131 159 -145 25 -6 807 -10 2343 -10 l2305 0 52 26
c58 29 106 79 133 138 17 37 19 72 19 367 l0 325 -26 52 c-30 61 -88 114 -143
130 -48 15 -4663 16 -4699 2z m358 -510 l0 -340 -80 0 -80 0 0 340 0 340 80 0
80 0 0 -340z m510 0 l0 -340 -75 0 -75 0 0 340 0 340 75 0 75 0 0 -340z m520
0 l0 -340 -75 0 -75 0 0 340 0 340 75 0 75 0 0 -340z m520 0 l0 -340 -75 0
-75 0 0 340 0 340 75 0 75 0 0 -340z m520 0 l0 -340 -75 0 -75 0 0 340 0 340
75 0 75 0 0 -340z m520 0 l0 -340 -80 0 -80 0 0 340 0 340 80 0 80 0 0 -340z
m520 0 l0 -340 -80 0 -80 0 0 340 0 340 80 0 80 0 0 -340z m510 0 l0 -340 -75
0 -75 0 0 340 0 340 75 0 75 0 0 -340z m520 0 l0 -340 -75 0 -75 0 0 340 0
340 75 0 75 0 0 -340z"/>
</g>
</svg>
