<?xml version="1.0" standalone="no"?>
<!DOCTYPE svg PUBLIC "-//W3C//DTD SVG 20010904//EN"
 "http://www.w3.org/TR/2001/REC-SVG-20010904/DTD/svg10.dtd">
<svg version="1.0" xmlns="http://www.w3.org/2000/svg"
 width="512.000000pt" height="512.000000pt" viewBox="0 0 512.000000 512.000000"
 preserveAspectRatio="xMidYMid meet">
<metadata>
Created by potrace 1.16, written by Peter Selinger 2001-2019
</metadata>
<g transform="translate(0.000000,512.000000) scale(0.100000,-0.100000)"
fill="#E4A5FF" stroke="none">
<path d="M980 4230 c-18 -18 -20 -33 -20 -188 0 -135 3 -172 16 -190 l15 -22
1504 0 1504 0 15 22 c13 18 16 55 16 190 0 155 -2 170 -20 188 -20 20 -33 20
-1515 20 -1482 0 -1495 0 -1515 -20z"/>
<path d="M1013 3710 c-24 -10 -42 -39 -53 -85 -4 -16 -222 -543 -485 -1169
-351 -836 -475 -1144 -469 -1155 17 -29 254 -139 398 -185 158 -51 411 -115
470 -119 l39 -2 163 835 c90 459 195 1001 235 1203 66 335 74 370 96 384 21
14 25 14 48 -1 14 -9 25 -26 25 -39 0 -12 -104 -557 -232 -1210 -181 -930
-229 -1190 -219 -1197 36 -22 558 -76 828 -87 l173 -6 0 30 c0 17 36 582 80
1257 44 674 80 1228 80 1231 0 2 11 12 25 21 23 15 27 15 50 0 21 -14 25 -24
25 -67 0 -51 -144 -2299 -155 -2416 l-6 -63 210 0 c176 0 713 17 717 23 1 1
-13 562 -31 1247 -20 744 -29 1252 -24 1262 21 39 84 29 94 -15 4 -19 65
-2312 65 -2441 l0 -48 93 7 c229 17 752 79 766 91 2 2 -56 538 -128 1192 -72
654 -129 1196 -125 1206 3 9 15 21 26 27 25 13 66 -11 73 -44 2 -12 61 -542
130 -1177 70 -635 129 -1162 133 -1171 6 -15 23 -13 162 17 208 45 418 106
571 165 133 52 252 117 257 141 1 8 -238 521 -533 1140 -294 619 -535 1135
-535 1147 0 13 -13 36 -29 52 l-29 29 -1479 -1 c-826 0 -1488 -4 -1500 -9z"/>
</g>
</svg>
