<svg width="24" height="24" viewBox="0 0 24 24" fill="none" xmlns="http://www.w3.org/2000/svg">
<path d="M21 6V21C21 21.4141 20.9219 21.8008 20.7656 22.1602C20.6094 22.5195 20.3945 22.8359 20.1211 23.1094C19.8477 23.3828 19.5273 23.5977 19.1602 23.7539C18.793 23.9102 18.4062 23.9922 18 24H4.5C4.08594 24 3.69922 23.9219 3.33984 23.7656C2.98047 23.6094 2.66406 23.3945 2.39062 23.1211C2.11719 22.8477 1.90234 22.5312 1.74609 22.1719C1.58984 21.8125 1.50781 21.4219 1.5 21V6H4.5V4.5C4.5 3.88281 4.61719 3.30078 4.85156 2.75391C5.08594 2.20703 5.41016 1.73047 5.82422 1.32422C6.23828 0.917969 6.71484 0.597656 7.25391 0.363281C7.79297 0.128906 8.375 0.0078125 9 0C9.8125 0 10.5664 0.203125 11.2617 0.609375C11.957 0.203125 12.7031 0 13.5 0C14.1172 0 14.6992 0.117188 15.2461 0.351562C15.793 0.585938 16.2695 0.910156 16.6758 1.32422C17.082 1.73828 17.4023 2.21484 17.6367 2.75391C17.8711 3.29297 17.9922 3.875 18 4.5V6H21ZM16.5 4.5C16.5 4.09375 16.4219 3.70703 16.2656 3.33984C16.1094 2.97266 15.8945 2.65625 15.6211 2.39062C15.3477 2.125 15.0273 1.91016 14.6602 1.74609C14.293 1.58203 13.9062 1.5 13.5 1.5C13.1484 1.5 12.8164 1.55859 12.5039 1.67578C12.7305 1.95703 12.9102 2.23438 13.043 2.50781C13.1758 2.78125 13.2734 3.05469 13.3359 3.32812C13.3984 3.60156 13.4414 3.87891 13.4648 4.16016C13.4883 4.44141 13.5 4.74219 13.5 5.0625V6H16.5V4.5ZM6 6H12V4.5C12 4.09375 11.9219 3.70703 11.7656 3.33984C11.6094 2.97266 11.3945 2.65625 11.1211 2.39062C10.8477 2.125 10.5273 1.91016 10.1602 1.74609C9.79297 1.58203 9.40625 1.5 9 1.5C8.58594 1.5 8.19922 1.57812 7.83984 1.73438C7.48047 1.89062 7.16406 2.10547 6.89062 2.37891C6.61719 2.65234 6.40234 2.97266 6.24609 3.33984C6.08984 3.70703 6.00781 4.09375 6 4.5V6ZM15.3984 22.5C15.1328 22.0312 15 21.5312 15 21V7.5H3V21C3 21.2109 3.03906 21.4062 3.11719 21.5859C3.19531 21.7656 3.30078 21.9219 3.43359 22.0547C3.56641 22.1875 3.72656 22.2969 3.91406 22.3828C4.10156 22.4688 4.29688 22.5078 4.5 22.5H15.3984ZM19.5 7.5H16.5V21C16.5 21.2109 16.5391 21.4062 16.6172 21.5859C16.6953 21.7656 16.8008 21.9219 16.9336 22.0547C17.0664 22.1875 17.2266 22.2969 17.4141 22.3828C17.6016 22.4688 17.7969 22.5078 18 22.5C18.2109 22.5 18.4062 22.4609 18.5859 22.3828C18.7656 22.3047 18.9219 22.1992 19.0547 22.0664C19.1875 21.9336 19.2969 21.7734 19.3828 21.5859C19.4688 21.3984 19.5078 21.2031 19.5 21V7.5Z" fill="black"/>
</svg>
